<?xml version="1.0" encoding="UTF-8"?>
<svg width="512pt" height="512pt" version="1.1" viewBox="0 0 512 512" xmlns="http://www.w3.org/2000/svg">
 <g>
  <path d="m512 256c0 141.39-114.61 256-256 256s-256-114.61-256-256 114.61-256 256-256 256 114.61 256 256" fill="#fff"/>
  <path d="m335.32 143.47h-158.64c-18.379 0-33.211 15.156-33.211 33.211v158.96c-0.32031 18.059 14.832 33.215 33.211 33.215h158.96c18.059 0 33.215-15.156 33.215-33.215v-158.96c0-18.379-15.156-33.211-33.535-33.211zm-147.36 206.36c-13.219 0-23.859-10.641-23.859-23.859s10.641-23.859 23.859-23.859 23.859 10.641 23.859 23.859c0.003906 13.219-10.637 23.859-23.859 23.859zm0.32422-139.61c-13.219 0-23.859-10.641-23.859-23.859 0-13.223 10.637-23.863 23.859-23.863 13.219 0 23.859 10.641 23.859 23.859 0 13.223-10.641 23.863-23.859 23.863zm67.711 70.289c-13.219 0-23.859-10.641-23.859-23.859s10.641-23.859 23.859-23.859 23.859 10.641 23.859 23.859-10.641 23.859-23.859 23.859zm67.711 69.324c-13.219 0-23.859-10.641-23.859-23.859s10.641-23.859 23.859-23.859 23.859 10.641 23.859 23.859c0.003907 13.219-10.637 23.859-23.859 23.859zm0.32422-139.61c-13.219 0-23.859-10.641-23.859-23.859 0-13.223 10.641-23.863 23.859-23.863s23.859 10.641 23.859 23.859c0 13.223-10.641 23.863-23.859 23.863z" fill="#3358d4"/>
 </g>
</svg>
